<?xml version="1.0" encoding="utf-8"?>
<!-- Generator: Adobe Illustrator 23.0.3, SVG Export Plug-In . SVG Version: 6.00 Build 0)  -->
<svg version="1.1" id="Layer_1" xmlns="http://www.w3.org/2000/svg" xmlns:xlink="http://www.w3.org/1999/xlink" x="0px" y="0px"
	 viewBox="0 0 595.28 595.28" style="enable-background:new 0 0 595.28 595.28;" xml:space="preserve">
<style type="text/css">
	.st0{fill:#6C4D74;}
	.st1{fill:#E07A4A;}
	.st2{fill:#D55D92;}
	.st3{fill:#CB5371;}
	.st4{fill:#96964F;}
	.st5{fill:#D9AC3D;}
	.st6{fill:#D04944;}
	.st7{fill:#B57C43;}
	.st8{fill:#459642;}
	.st9{fill:#603A17;}
</style>
<path class="st8" d="M553.68,105.06l-13.66,43.37c-1.18,3.75-7.35,5.13-13.75,3.12c-6.42-2.03-10.66-6.7-9.48-10.45
	c1.18-3.75,7.35-5.15,13.75-3.12c2.41,0.75,4.5,1.88,6.12,3.19l5.43-22.84l-36.61-6.85l-3.58,33.22c0.04,0.56,0,1.1-0.17,1.64
	c-1.18,3.75-7.35,5.15-13.75,3.12c-6.42-2.02-10.66-6.7-9.48-10.45c1.18-3.75,7.35-5.15,13.75-3.12c2.5,0.78,4.65,1.98,6.29,3.36
	l2.89-36.37L553.68,105.06z M463.92,406.12c11.52-2.06,18.97-0.19,20.82,5.42c2.34,7.1-6.35,18.53-26.97,28.64
	c15.53,0.01,20.22,5.25,21.19,10.18c1.78,9.07-9.87,21.52-24.42,27.03c25.39,16.23,31.67,33.01,29.07,42.78
	c-1.73,6.51-7.13,10.63-15.01,11.59c2.66,6.57,1.95,12.49-2.11,16.9c-10.4,11.32-46.79,13.88-115.33-15.24
	c0.9,4.76-0.66,10.32-4.49,14.7c-2.87,3.28-10.29,9.37-25.62,9.37c-15.59,0-39.37-6.3-74.87-28.26
	c-24.87,12.69-39.91,15.81-45.96,9.57c-4.99-5.15-2.14-14.63,0.62-20.9c-18.52,6.84-63.79,22.25-95.84,22.25
	c-14.84,0-26.83-3.31-31.97-12.32c-2.38-4.16-2.66-8.7-0.84-13.48c5.59-14.66,32.03-31.32,71.1-45.01
	c-15.55-7.15-22.34-12.62-22.28-17.91c0.06-5.41,6.76-8.13,13.25-10.77c2.66-1.08,8.2-3.34,8.28-4.52c0-0.01-0.1-1.09-3.82-3.22
	c-67.82-38.76-97.64-79.47-97.11-102.62c0.18-7.52,3.45-13.13,9.49-16.22c15.08-7.72,31.29,6.42,42.72,20.52
	c-21.19-47.67-21.61-60.26-18.5-66.2c1.27-2.43,3.45-3.91,6.46-4.41c5.91-0.98,11.69,2.77,15.96,6.72
	c-5.86-22.78-1.44-34.48,3.74-40.37c6.07-6.9,16.18-9.32,28.44-6.88c19.36,3.87,32.22,28.76,37.51,41.2
	c2.09-6.8,5.89-10.92,10.76-11.35c6.76-0.69,13.5,5.91,19.14,17.97c-1.1-20.69,1.65-26.61,4.66-29.42
	c3.27-3.05,7.37-2.32,10.99-1.68c0.85,0.15,1.72,0.31,2.56,0.41c7.28,0.87,12.56,15.06,15.5,25.55
	c2.63-12.43,7.21-24.06,15.13-24.92c7.89-0.77,15.68,9.16,23.29,29.64c1.31-0.24,2.7-0.42,4.2-0.53
	c7.25-29.27,9.32-51.74,6.68-72.22c-12.35,2.03-24.78,3.35-37.23,4.13c-12.81,0.69-25.62,0.96-38.44,0.7
	c-3.21-0.04-6.41-0.2-9.63-0.38c-3.3-0.23-6.23-0.3-9.99-1.01c-1.81-0.45-3.97-1.56-5.25-3.52c-1.29-1.95-1.45-3.97-1.57-5.71
	c-0.09-2.63,0.1-5.02,0.25-7.38c-26.93,1.92-50.3,0.1-52.86-2.88c-4.2-4.91-2.22-17.68-0.93-23.9c-7.73-1.95-15.45-7.29-19.34-13.55
	c-2.54-4.09-3.26-8.29-2.08-12.14c1.74-5.64,6.06-9.38,11.28-9.73c3.76-0.25,7.3,1.25,10.1,4.17c1.01-5.46,3.32-9.44,6.74-11.46
	c3.2-1.89,6.99-1.86,10.67,0.09c7.26,3.82,9.79,10.77,7.55,20.65c32.74,2.65,76.55-6.94,88.21-9.69
	c-6.81-10.97-9.38-23.15-6.54-31.69c1.84-5.55,5.89-9.5,11.7-11.44c4.49-1.5,8.66-0.99,12.39,1.51c8.94,5.97,12.93,22.04,14.1,31.79
	c4.48-1.72,13.77-5.52,19.96-9.55c-4.44-7.19-9.02-19.95-5.77-30.57c2.09-6.83,7.02-11.73,14.66-14.59
	c13.45-5.01,30.6,10.17,44.94,39.62c5.13,0.35,22.46,2.13,26.04,10.26c3.68,8.32-9.11,18.3-13.61,21.49
	c0.63,2.01,1.25,4.06,1.85,6.15c5.18,0.36,14.34,1.54,16.16,5.47c1.81,3.88-4.32,12.35-10.09,19.09c0.66,3.15,1.27,6.36,1.86,9.64
	c2.98,1.12,7.79,3.39,8.53,6.5c0.77,3.1-3,8.36-5.73,11.67c0.33,2.52,0.63,5.1,0.93,7.7c20.24-6.09,46.81-44.26,42.89-70.91
	l-0.32-2.19l2.19-0.26c1.62-0.2,3.13-0.27,4.67-0.37c-0.07-0.23-0.11-0.49-0.19-0.72c-2.23-6.82-7.15-9.84-13.38-13.66
	c-6.52-4-14.63-8.98-21.5-19.98c-3.67-5.89-6.57-13.91-7.79-22.24c-0.01-0.05-0.01-0.1-0.02-0.15c-1.06-7.32-0.83-14.87,1.49-21.45
	c2.76-7.82,8.22-13.36,15.79-16.01c7.21-2.53,14.52-1.64,21.16,2.55c6.73,4.25,12.17,11.59,16.02,19.51
	c0.25,0.28,0.4,0.63,0.48,1.01c1.91,4.11,3.4,8.31,4.37,12.35c0.06,0.15,0.1,0.3,0.13,0.47c0.48,2.07,0.87,4.1,1.08,6.01
	c1.55,14.27-1.66,22.95-4.24,29.92c-2.26,6.12-4.05,10.94-1.97,17.7c0.4,1.3,1.9,3.43,3.19,5.16c22.26,3.47,30,18.67,32.29,25.11
	l0.26,0.74l-0.27,0.73c-14.76,39.62-58.14,67.75-94.08,75.58c0.58,11.92,0.5,23.79-0.17,35.41c22.21-5.51,41.43-13.99,47.08-18.23
	l1.42-1.07l1.32,1.19c2.61,2.34,4.71,5.04,6.52,7.9c1.19-1.05,2.23-2.04,3.01-2.94c4.67-5.43,4.71-11.2,4.76-18.51
	c0.05-7.65,0.11-17.18,5.99-28.74c1.28-2.53,2.99-5.14,4.93-7.71c0.05-0.08,0.1-0.15,0.16-0.22c2.19-2.87,4.74-5.65,7.57-8.24
	c0.03-0.03,0.06-0.06,0.09-0.09c6.2-5.64,13.66-10.21,21.45-11.84c8.13-1.68,15.7,0.1,21.89,5.22c5.89,4.86,8.92,11.58,8.77,19.43
	c-0.12,6.28-2.35,12.87-5.6,19.01c-0.08,0.4-0.28,0.75-0.56,1.04c-2.28,4.11-4.98,8-7.93,11.4c-0.05,0.06-0.09,0.13-0.15,0.18
	c-2.6,2.97-5.33,5.57-8.01,7.62c-11.41,8.7-20.49,10.45-27.79,11.85c-6.41,1.23-11.47,2.21-16.19,7.5c-1.25,1.41-2.8,5.42-4.44,9.67
	c-0.57,1.49-1.18,3.06-1.82,4.63c0.89,13.25-3.55,24.47-3.75,24.96l-0.4,0.98l-1.01,0.28c-3.68,1.04-7.38,1.97-11.08,2.83
	c1.89,1.21,3.53,2.75,4.89,4.67c4.41,6.25,4.83,14.6,4.53,20.01c58.99-43.37,77.5-41.32,92.2-21.7
	C533.84,324.61,492.02,376.94,463.92,406.12z M395.77,418.04c6.14,4.02,32.75-10.74,43.55-26.26c4.85-6.96,5.1-12.11,0.76-15.31
	c-0.01-0.01-0.01-0.01-0.02-0.02c-1.96-1.44-4.26-2.06-6.75-2.06c-7.43,0-16.53,5.55-23.23,11.49
	c-12.2,10.81-19.43,24.38-16.12,30.25C394.37,416.88,394.97,417.51,395.77,418.04z M349.41,341.1c-10.99,6.28-21.95,8.26-31.71,8.26
	c-5.82,0-11.17-0.69-15.89-1.54c-2.11,18.23-2.46,32.92-1.12,46.8c3.8-1.98,7.45-4.1,10.79-6.43c0.01-0.01,0.03-0.01,0.04-0.02
	c11.78-8.13,21.9-18.97,30.08-32.23C344.44,351.37,347,346.33,349.41,341.1z M262.2,280.58c-0.28,2.42,1.33,12.23,2.88,20.57
	c2.58-8.71,5.12-17.52,7.41-26.4c-1.44,0.16-2.81,0.37-4,0.67C263.23,276.75,262.39,279,262.2,280.58z M312,229.96
	c1.08,11.22,1.27,22.99,0.5,35.88c16.47,5.55,38.25,2.66,54.41-0.98c0.78-12.45,0.87-25.21,0.18-38.01
	c-0.08-1.54-0.17-3.03-0.27-4.5c-0.02-0.19-0.05-0.38-0.08-0.58c-1.75,0.72-4.11,1.52-6.53,1.83c-0.05,0.01-0.1,0.01-0.15,0.01
	l0.69,12.03l-13.59-6.05l-3.25,4.59l-5.47-3.12l-15.21,11.7l-2.05-13.88C320.76,228.93,316.16,229.7,312,229.96z M251.01,118.07
	c-1.03-0.89-2.11-1.95-3.15-3.03c-2.07-2.21-4.08-4.61-6.29-6.91c-0.17-0.17-0.44-0.25-0.68-0.16c-0.32,0.12-0.47,0.48-0.35,0.79
	c1.15,3,2.46,5.95,4.32,8.64c0.91,1.37,1.86,2.73,3.15,3.96c0.55,0.64,1.41,1.22,2.2,1.8c0.52,0.27,1.06,0.52,1.61,0.75
	c0.72,0.14,1.61,0.26,2.41,0.05c1.93-0.66,2.68-2.17,3.03-3.16c0.37-1.06,0.51-2.02,0.54-2.9c0.16-1.8-0.05-3.46-0.3-5.08
	c-0.42-3.26-1.41-6.32-2.53-9.32c-0.11-0.29-0.4-0.5-0.73-0.5c-0.42,0.01-0.76,0.36-0.75,0.78l0.12,9.32
	c0.02,1.5-0.11,3.01-0.26,4.32c0.03,0.89-0.34,1.56-0.49,1.85c-0.11-0.04-0.21-0.1-0.33-0.12
	C252.05,118.81,251.53,118.59,251.01,118.07z M302.86,96.08c-2.09-2.21-4.07-4.63-6.19-6.99c-0.18-0.2-0.49-0.29-0.75-0.18
	c-0.33,0.14-0.48,0.52-0.34,0.84c1.24,2.95,2.58,5.87,4.42,8.58c0.93,1.35,1.88,2.7,3.11,3.98c0.55,0.64,1.41,1.22,2.19,1.79
	c0.52,0.27,1.06,0.52,1.6,0.74c0.71,0.14,1.59,0.25,2.39,0.06c1.94-0.58,2.74-2.11,3.09-3.11c0.38-1.07,0.54-2.03,0.54-2.91
	c0.11-1.81-0.05-3.47-0.34-5.09c-0.46-3.25-1.45-6.32-2.65-9.31c-0.1-0.23-0.34-0.42-0.62-0.42c-0.37,0-0.66,0.3-0.66,0.66
	c-0.09,3.19,0.05,6.32,0.01,9.34c-0.02,1.51-0.11,3.01-0.3,4.32c0.01,0.96-0.4,1.62-0.5,1.89c-0.1-0.04-0.18-0.08-0.29-0.11
	c-0.47-0.35-1-0.57-1.52-1.09C304.97,98.26,303.89,97.19,302.86,96.08z M259.44,320.05c-4.86-4.32-14.38-11.05-20.67-9.77
	c-5.66,1.14-8.69,16.82-10.7,27.19c-0.55,2.85-1.06,5.42-1.58,7.65c9.99-2.67,19.91-7.14,29.56-13.47
	C257.15,327.79,258.3,323.92,259.44,320.05z M212.14,347.67c-4.18-10.04-9.65-20.42-12.13-21.33c-2.11-0.22-10.61,7.46-18.71,17.06
	C190.93,347.16,201.27,348.59,212.14,347.67z M165.26,323.04c-1.44-1.01-6.81-0.89-12.1-0.21c3.64,4.39,7.64,8.25,11.94,11.54
	C166.2,328.56,166.17,323.75,165.26,323.04z M360.64,308.29c-21.11-0.38-38.8-4.17-51.48-11.1c-0.92,6.5-1.92,12.94-2.92,19.35
	c-1.38,8.87-2.78,18.02-3.91,27c13.24,2.41,32.07,3.46,50.26-9.57C355.74,326.13,358.43,317.48,360.64,308.29z M452.25,195.25
	l8.78,1.37l2.06,11.54l11.99-0.84l3.45,12.96l9.17-2.93l3.42,8.5c1.89-2.42,3.61-5.03,5.13-7.75l-1.39-8.79l-11.32,0.86l-2.38-9.08
	h-12.74l-2.98-10.2h-8.98C454.97,192.3,453.57,193.75,452.25,195.25z M461.63,186.59h7.05l2.98,10.2h12.84l2.31,8.82l11.7-0.89
	l1.02,6.43c1.4-3.75,2.31-7.56,2.38-11.24c0.13-6.58-2.3-11.97-7.2-16.03c-5.22-4.31-11.36-5.78-18.27-4.32
	C471.28,180.63,466.22,183.23,461.63,186.59z M429.77,257.42c1.07,2.24,1.95,4.6,2.6,7.1c1.54-3.96,2.88-7.12,4.38-8.81
	c5.69-6.38,11.67-7.53,18.59-8.86c7.21-1.39,15.38-2.96,25.99-11.05c2.22-1.7,4.47-3.83,6.64-6.2l-2.78-6.93l-9.67,3.08l-3.7-13.89
	l-12.3,0.87l-2.2-12.33l-8.18-1.28c-1.54,2.11-2.93,4.23-3.96,6.26c-5.41,10.66-5.47,19.24-5.52,26.82
	c-0.05,7.53-0.1,14.66-5.8,21.28C432.82,254.71,431.43,256.01,429.77,257.42z M383.12,80.68l11.67,2.19l5.64-11.98l13.27,4.19
	l7.27-11.61l9.12,1.59c-0.79-2.66-1.8-5.35-3-8.01l-9.68-1.14l-7.41,10.89l-11.94-3.62l-7.4,10.78l-10.09-2.34
	C381.21,74.76,382.06,77.83,383.12,80.68z M379.85,67.02l8.92,2.07l7.52-10.95l11.93,3.62l7.1-10.43l9.45,1.11
	c-3.35-6-7.69-11.38-12.89-14.66c-3.49-2.2-7.09-3.3-10.78-3.3c-2.2,0-4.42,0.39-6.66,1.18c-6.38,2.23-10.81,6.73-13.15,13.37
	C379.37,54.47,379.11,60.79,379.85,67.02z M422.51,123.72c0.32,0.96,0.56,2.01,0.79,3.07c0.02,0.06,0.03,0.13,0.05,0.19
	c0.02,0.11,0.06,0.21,0.08,0.32c0.86,4.19,1.17,8.98,1.47,13.6c0.53,8.3,1.08,16.88,4.87,19.28c1.75,1.1,4.43,0.95,8-0.47
	c3.23-1.29,5.09-2.98,5.69-5.18c1.61-5.87-5.6-15.19-10.87-22.01l-2.29-2.99l0,0c0,0,0,0,0,0h0c-2.59-3.4-3.85-5.47-4.37-7.16
	c-2.51-8.15-0.4-13.85,2.04-20.46c2.55-6.89,5.44-14.7,3.99-27.96c-0.15-1.38-0.4-2.84-0.71-4.32l-8.16-1.42l-7.5,11.97l-12.86-4.05
	l-5.45,11.59l-12.1-2.28c0.64,1.31,1.31,2.57,2.02,3.7c6.33,10.14,13.64,14.63,20.1,18.59C413.72,111.68,419.79,115.4,422.51,123.72
	z M366.28,178.74c0.38,2.31,0.73,4.66,1.08,7.03c1.43-2.11,2.45-3.98,2.42-4.68C369.57,180.57,368.1,179.63,366.28,178.74z
	 M369.73,146.61c-0.62-0.98-5.52-2.18-10.98-2.72c1.32,4.82,2.53,9.76,3.65,14.76C366.71,153.25,369.93,148.06,369.73,146.61z
	 M345.35,106.07c3.21,7.05,6.2,14.73,8.93,22.93c5.46-4.09,12.93-11.23,11.07-15.43C363.45,109.27,353.22,106.88,345.35,106.07z
	 M280.6,193.34c6.2-1.16,12.33-2.58,18.5-3.86c6.18-1.4,11.97-3.45,18.35-4.66c0.33-0.07,0.67,0.14,0.74,0.47
	c0.05,0.23-0.05,0.47-0.22,0.61c-3.97,3.22-8.61,5.28-13.38,6.72c3.33,10.86,5.61,21.73,6.94,33.05c4.05-0.23,8.88-1.06,8.93-1.07
	c0.02,0,0.04,0,0.05,0l-1.78-11.95l19.26,9.46l4.07-3.4l4.05,1.25l12.97-12.95l0.7,12.27c2.4-0.33,4.81-1.28,6.27-1.93
	c-5.52-34.47-26.17-61.88-55.63-73.7c-43.6,28.49-93.02,38.01-127.59,40.93c-0.23,5.82-1.12,12.04,3.35,12.41
	c5.52,0.75,12.35,0.75,18.54,0.9c12.68,0.23,25.39-0.08,38.05-0.79C255.46,196.4,268.11,195.3,280.6,193.34z M149.24,467.3
	c30.14-10,63.81-17.23,97.6-20.99c-2.98-10.84-4.53-22.12-4.67-34.29h-0.05c0.18-15.8,0.89-29.31,0.89-29.31
	c-3.04,9.86-4.65,23.65-5.22,29.26c-0.32-0.01-0.62,0-0.94-0.01c-38.83-1.04-67.71-12.94-85.84-35.37
	c-28.9-35.75-20.13-84.85-19.75-86.92l1.56-8.37l2.61,8.1c3.64,11.31,8.59,21.2,14.67,29.5c4.45-0.73,14.03-1.94,17.63,0.59
	c3.94,2.74,2.42,12.3,1.21,17.6c2.6,1.72,5.33,3.25,8.15,4.58c7.17-8.72,18.83-21.42,24.4-19.39c5.29,1.94,12.3,17.94,15.13,24.91
	c1.73-0.25,3.44-0.54,5.11-0.9c0.7-2.49,1.38-5.96,2.1-9.66c2.62-13.54,5.59-28.88,14.08-30.59c8.09-1.6,18.14,5.59,22.87,9.48
	l1.66-5.5c-0.45-2.04-5.1-25.04-4.53-29.96c0.43-3.78,2.99-6.44,7.36-8.07c-9.49-25.36-16.64-26.67-18.66-26.51
	c-4.3,0.47-10.01,9-13.1,31.56l-1.72,12.57l-2.52-12.43c-2.65-13.04-8.82-31.68-14.26-32.34c-0.93-0.11-1.87-0.27-2.81-0.44
	c-3.49-0.62-5.72-0.89-7.3,0.59c-3.88,3.62-4.56,17.57-2.02,41.48l-4.21,0.84c-6.72-22.69-15.09-30.37-20.12-29.74
	c-4.12,0.37-7.39,6.25-8.33,14.96l-1.05,9.75l-3.14-9.29c-0.14-0.41-14.01-40.74-36.99-45.33c-7.56-1.52-17.94-1.8-24.36,5.5
	c-7.26,8.25-7.35,23.83-0.25,45.08l0.27,0.27l0.02,0.94c0,0.06-0.05,0.1-0.06,0.16c-0.04,0.37-0.17,0.72-0.39,1.03
	c0,0-0.01,0.01-0.01,0.01c-0.13,0.18-0.27,0.36-0.46,0.5c-0.88,0.64-2.06,0.48-2.79-0.29c-0.04-0.04-0.1-0.04-0.13-0.08l-0.05-0.09
	c-0.01-0.01-0.02-0.02-0.03-0.03c-3.71-5.16-11.71-13.63-18.34-12.45c-1.68,0.28-2.71,0.94-3.35,2.16c-4,7.63,5.25,34.73,29.12,85.3
	c0.51,1.08,0.05,2.36-1.03,2.87c-0.3,0.14-0.61,0.2-0.92,0.2c-0.74,0-1.43-0.42-1.82-1.09l-0.04,0.02
	c-3.01-5.24-30-50.74-51.38-39.81c-4.6,2.36-7,6.55-7.14,12.48c-0.5,21.87,28.65,60.89,94.94,98.78c2.67,1.52,6.2,3.94,5.98,7.24
	c-0.26,3.88-5.22,5.89-10.95,8.22c-4.45,1.81-10.54,4.29-10.57,6.82C125.29,453.1,127.63,457.88,149.24,467.3z M448.39,478.64
	c-21.42-12.67-61.7-28.1-132.06-30.54c4.78,9.35,10.63,18.68,17.57,27.79l1.43,1.87l-1.99,1.26c-11.2,7.06-23.92,9.68-35.7,9.68
	c-15.84,0.01-29.97-4.74-36.39-9.81l-0.5-0.56c-5.42-8.81-9.66-18.17-12.7-27.81c-34.04,3.73-67.98,11.02-98.26,21.14
	C109.7,485.05,81.5,502,76.2,515.89c-1.36,3.57-1.18,6.78,0.55,9.81c13.03,22.81,86.28,2.13,127.5-13.68l0.01,0.02
	c0.8-0.38,1.79-0.27,2.45,0.39c0.74,0.75,0.84,1.88,0.27,2.72c-3.03,5.49-7.58,16.63-3.68,20.65c2.57,2.65,11.45,4.77,41.98-10.96
	l1.09-0.56l1.04,0.65c54.31,33.85,85.2,32.69,96.01,20.35c4.67-5.34,4.45-11.53,1.87-14.65l-5.76-6.97l8.28,3.63
	c65.27,28.55,105.03,29.84,115.5,18.46c4.25-4.62,2.39-10.66,0.09-14.9l-1.7-3.13l3.57-0.05c7.58-0.1,12.74-3.24,14.17-8.61
	C481.97,509.55,473.35,493.37,448.39,478.64z M515.65,307.5c-11.76-15.69-25.11-23.04-90.15,25.51l-4.35,3.25l0.94-5.35
	c0.25-1.41,2.26-14.02-3.24-21.82c-2.12-3.01-5.03-4.8-8.87-5.51c-15.09,3.04-30.49,4.55-44.91,4.73c-2.35,10-5.27,19.39-8.71,27.88
	c-2.46,6.07-5.3,11.69-8.3,17.03c23.59-6.65,66.18-0.35,94.53,19.74c0,0,0,0.01,0.01,0.01c0.01,0.01,0.02,0.01,0.02,0.01
	c3.71,2.73,8.68,9.12,0.23,21.26c-9.49,13.63-32.21,28.66-44.43,28.67c-2,0-3.71-0.41-5.04-1.28c-1.2-0.8-2.13-1.8-2.85-2.93
	c-25.39-23.44-49.89-31.93-77.04-26.68c-3.8,2.62-7.93,5.02-12.26,7.2c1.96,15.63,6.2,30.22,12.93,44.49
	c71.94,2.18,113.39,17.81,135.66,30.8c14.61-4.1,26.28-16.39,24.92-23.31c-1.16-5.86-12.04-8.05-29.13-5.82l-17.93,2.33l16.88-6.48
	c26.31-10.1,37.87-22.94,36.09-28.33c-1.09-3.31-8.59-4.89-22.85-0.94l-7.89,2.18l5.8-5.78
	C493.28,370.85,527.07,322.75,515.65,307.5z M176.15,446c9.09,1.19,17.72-2.35,23.38-8.73c-3.82-7.62-11.23-13.28-20.33-14.48
	c-9.09-1.19-17.72,2.35-23.38,8.73C159.65,439.15,167.06,444.81,176.15,446z M125.52,269.71c7.49,2.92,15.57,1.69,21.72-2.56
	c-1.66-7.29-6.79-13.65-14.28-16.56c-7.49-2.91-15.57-1.69-21.72,2.56C112.9,260.43,118.03,266.79,125.52,269.71z M474.11,319.77
	c-7.33,3.29-12.14,9.9-13.43,17.26c6.36,3.93,14.49,4.75,21.82,1.46c7.33-3.29,12.14-9.9,13.43-17.26
	C489.58,317.3,481.45,316.48,474.11,319.77z M345.45,420.15c-5.83,2.62-9.66,7.87-10.68,13.73c5.06,3.13,11.52,3.78,17.36,1.16
	c5.83-2.61,9.65-7.87,10.68-13.73C357.76,418.19,351.29,417.54,345.45,420.15z M397.45,320.56c-5.9-2.45-12.35-1.62-17.32,1.65
	c1.19,5.82,5.16,10.98,11.06,13.43c5.91,2.45,12.35,1.62,17.32-1.65C407.32,328.16,403.36,323.01,397.45,320.56z M118.93,379.59
	c-3.18,4.29-4.25,10.02-2.35,15.44c1.9,5.42,6.31,9.23,11.47,10.59c3.18-4.29,4.25-10.02,2.35-15.44
	C128.5,384.77,124.09,380.95,118.93,379.59z M189.64,309.51c5.64,1.08,11.15-0.83,14.92-4.61c-2.11-4.9-6.54-8.71-12.17-9.78
	c-5.64-1.08-11.15,0.83-14.92,4.61C179.58,304.63,184,308.43,189.64,309.51z M59.45,348.78c3.47,4.05,8.83,6.37,14.53,5.72
	c5.7-0.65,10.4-4.11,12.88-8.83c-3.47-4.05-8.83-6.37-14.53-5.72C66.62,340.59,61.93,344.05,59.45,348.78z M412.52,431.99
	c-3.67,4.41-4.67,10.16-3.18,15.29c5.31,0.52,10.78-1.51,14.45-5.93c3.67-4.41,4.67-10.16,3.18-15.29
	C421.66,425.54,416.19,427.57,412.52,431.99z M104.64,305.52c-1.92,3.79-1.69,8.1,0.23,11.55c3.92-0.5,7.52-2.87,9.44-6.65
	c1.92-3.79,1.69-8.1-0.23-11.55C110.17,299.37,106.56,301.74,104.64,305.52z M250.95,278.16c1.92-3.79,1.69-8.1-0.23-11.55
	c-3.92,0.5-7.52,2.87-9.44,6.65c-1.92,3.79-1.69,8.1,0.23,11.55C245.42,284.31,249.03,281.94,250.95,278.16z M458.66,369.77
	c-1.92,3.79-1.69,8.1,0.23,11.55c3.92-0.5,7.52-2.87,9.44-6.65s1.69-8.1-0.23-11.55C464.18,363.61,460.58,365.98,458.66,369.77z
	 M403.35,473.39l-6.83,32.9l-18.6-28.03l6.92,38.82c12.34,4.85,24.69,4.85,37.03,0l6.92-38.82l-18.6,28.03L403.35,473.39z
	 M209.45,466.14l-4.95,23.85l-13.48-20.31l5.02,28.13c8.95,3.52,17.89,3.52,26.83,0l5.02-28.13l-13.48,20.31L209.45,466.14z
	 M308.48,503.36l-5.01,24.14l-13.65-20.56l5.08,28.48c9.06,3.56,18.11,3.56,27.17,0l5.08-28.48L313.5,527.5L308.48,503.36z
	 M190.89,547.05c2.92,3.67,2.59,6.7,1.8,8.58c-2.78,6.64-14.56,8.59-19.5,9.12c-2.1,0.22-4.27,0.35-6.44,0.35
	c-8.27,0-16.38-1.75-19.42-6.1c-2.29-3.27-1.24-7.02,2.8-10.03C159.43,542.04,183.99,538.37,190.89,547.05L190.89,547.05z
	 M187.52,549.73L187.52,549.73c-1.89-2.38-6.45-3.41-11.78-3.41c-8.14,0-18.07,2.41-23.01,6.1c-3.11,2.32-2.22,3.57-1.85,4.12
	c2.3,3.27,11.91,5,21.86,3.93c8.31-0.89,14.73-3.5,15.98-6.49C188.9,553.53,189.47,552.18,187.52,549.73z"/>
</svg>
